<mxfile host="app.diagrams.net" modified="2023-12-18T03:04:05.895Z" agent="Mozilla/5.0 (Windows NT 10.0; Win64; x64) AppleWebKit/537.36 (KHTML, like Gecko) Chrome/119.0.0.0 Safari/537.36" etag="eu0xvGDcaVstm0Nqq_T2" version="22.1.11" type="github">
  <diagram name="第 1 页" id="rC39hGufa94ov2SQlZUO">
    <mxGraphModel dx="1845" dy="868" grid="0" gridSize="10" guides="1" tooltips="1" connect="1" arrows="1" fold="1" page="1" pageScale="1" pageWidth="827" pageHeight="1169" math="0" shadow="0">
      <root>
        <mxCell id="0" />
        <mxCell id="1" parent="0" />
        <mxCell id="DHpkwYTsyXD9E4zMsWnn-7" value="性别" style="ellipse;whiteSpace=wrap;html=1;" vertex="1" parent="1">
          <mxGeometry x="511" y="280" width="115" height="70" as="geometry" />
        </mxCell>
        <mxCell id="DHpkwYTsyXD9E4zMsWnn-10" value="" style="endArrow=none;html=1;rounded=0;entryX=0.5;entryY=1;entryDx=0;entryDy=0;exitX=0.672;exitY=0.018;exitDx=0;exitDy=0;exitPerimeter=0;" edge="1" parent="1" source="DHpkwYTsyXD9E4zMsWnn-1" target="DHpkwYTsyXD9E4zMsWnn-7">
          <mxGeometry width="50" height="50" relative="1" as="geometry">
            <mxPoint x="321" y="430" as="sourcePoint" />
            <mxPoint x="421" y="400" as="targetPoint" />
          </mxGeometry>
        </mxCell>
        <mxCell id="DHpkwYTsyXD9E4zMsWnn-13" value="" style="endArrow=none;html=1;rounded=0;exitX=0.75;exitY=0;exitDx=0;exitDy=0;entryX=0;entryY=0.5;entryDx=0;entryDy=0;" edge="1" parent="1" source="DHpkwYTsyXD9E4zMsWnn-1" target="DHpkwYTsyXD9E4zMsWnn-14">
          <mxGeometry width="50" height="50" relative="1" as="geometry">
            <mxPoint x="411" y="450" as="sourcePoint" />
            <mxPoint x="491" y="360" as="targetPoint" />
          </mxGeometry>
        </mxCell>
        <mxCell id="DHpkwYTsyXD9E4zMsWnn-14" value="用户头像" style="ellipse;whiteSpace=wrap;html=1;" vertex="1" parent="1">
          <mxGeometry x="581" y="350" width="115" height="70" as="geometry" />
        </mxCell>
        <mxCell id="DHpkwYTsyXD9E4zMsWnn-15" value="" style="endArrow=none;html=1;rounded=0;exitX=0.75;exitY=0;exitDx=0;exitDy=0;" edge="1" parent="1" source="DHpkwYTsyXD9E4zMsWnn-1" target="DHpkwYTsyXD9E4zMsWnn-16">
          <mxGeometry width="50" height="50" relative="1" as="geometry">
            <mxPoint x="431" y="460" as="sourcePoint" />
            <mxPoint x="573.5" y="390" as="targetPoint" />
            <Array as="points" />
          </mxGeometry>
        </mxCell>
        <mxCell id="DHpkwYTsyXD9E4zMsWnn-16" value="用户状态" style="ellipse;whiteSpace=wrap;html=1;" vertex="1" parent="1">
          <mxGeometry x="581" y="430" width="115" height="70" as="geometry" />
        </mxCell>
        <mxCell id="DHpkwYTsyXD9E4zMsWnn-17" value="" style="endArrow=none;html=1;rounded=0;entryX=0.5;entryY=1;entryDx=0;entryDy=0;exitX=0.5;exitY=0;exitDx=0;exitDy=0;" edge="1" parent="1" source="DHpkwYTsyXD9E4zMsWnn-23">
          <mxGeometry width="50" height="50" relative="1" as="geometry">
            <mxPoint x="371" y="590" as="sourcePoint" />
            <mxPoint x="367.90999999999997" y="500" as="targetPoint" />
          </mxGeometry>
        </mxCell>
        <mxCell id="DHpkwYTsyXD9E4zMsWnn-18" value="" style="endArrow=none;html=1;rounded=0;entryX=0.41;entryY=0.991;entryDx=0;entryDy=0;entryPerimeter=0;" edge="1" parent="1" target="DHpkwYTsyXD9E4zMsWnn-19" source="DHpkwYTsyXD9E4zMsWnn-1">
          <mxGeometry width="50" height="50" relative="1" as="geometry">
            <mxPoint x="411" y="690" as="sourcePoint" />
            <mxPoint x="503" y="610" as="targetPoint" />
          </mxGeometry>
        </mxCell>
        <mxCell id="DHpkwYTsyXD9E4zMsWnn-20" value="" style="endArrow=none;html=1;rounded=0;exitX=0.75;exitY=1;exitDx=0;exitDy=0;entryX=0.5;entryY=0;entryDx=0;entryDy=0;" edge="1" parent="1" source="DHpkwYTsyXD9E4zMsWnn-1" target="DHpkwYTsyXD9E4zMsWnn-21">
          <mxGeometry width="50" height="50" relative="1" as="geometry">
            <mxPoint x="443" y="710" as="sourcePoint" />
            <mxPoint x="585.5" y="640" as="targetPoint" />
            <Array as="points" />
          </mxGeometry>
        </mxCell>
        <mxCell id="DHpkwYTsyXD9E4zMsWnn-21" value="用户昵称" style="ellipse;whiteSpace=wrap;html=1;" vertex="1" parent="1">
          <mxGeometry x="403.5" y="597.5" width="105" height="70" as="geometry" />
        </mxCell>
        <mxCell id="DHpkwYTsyXD9E4zMsWnn-23" value="用户Id" style="ellipse;whiteSpace=wrap;html=1;" vertex="1" parent="1">
          <mxGeometry x="301" y="600" width="102.5" height="65" as="geometry" />
        </mxCell>
        <mxCell id="DHpkwYTsyXD9E4zMsWnn-24" value="账号" style="ellipse;whiteSpace=wrap;html=1;" vertex="1" parent="1">
          <mxGeometry x="520" y="590" width="116" height="67.5" as="geometry" />
        </mxCell>
        <mxCell id="DHpkwYTsyXD9E4zMsWnn-25" value="电话" style="ellipse;whiteSpace=wrap;html=1;" vertex="1" parent="1">
          <mxGeometry x="271" y="260" width="105" height="70" as="geometry" />
        </mxCell>
        <mxCell id="DHpkwYTsyXD9E4zMsWnn-26" value="密码" style="ellipse;whiteSpace=wrap;html=1;" vertex="1" parent="1">
          <mxGeometry x="581" y="510" width="115" height="75" as="geometry" />
        </mxCell>
        <mxCell id="DHpkwYTsyXD9E4zMsWnn-27" value="简介" style="ellipse;whiteSpace=wrap;html=1;" vertex="1" parent="1">
          <mxGeometry x="391" y="260" width="110" height="70" as="geometry" />
        </mxCell>
        <mxCell id="DHpkwYTsyXD9E4zMsWnn-28" value="" style="endArrow=none;html=1;rounded=0;entryX=1;entryY=0.75;entryDx=0;entryDy=0;exitX=0.413;exitY=0.039;exitDx=0;exitDy=0;exitPerimeter=0;" edge="1" parent="1" source="DHpkwYTsyXD9E4zMsWnn-24" target="DHpkwYTsyXD9E4zMsWnn-1">
          <mxGeometry width="50" height="50" relative="1" as="geometry">
            <mxPoint x="483.54" y="560" as="sourcePoint" />
            <mxPoint x="480.45" y="470" as="targetPoint" />
          </mxGeometry>
        </mxCell>
        <mxCell id="DHpkwYTsyXD9E4zMsWnn-29" value="" style="endArrow=none;html=1;rounded=0;entryX=1;entryY=0.75;entryDx=0;entryDy=0;" edge="1" parent="1" source="DHpkwYTsyXD9E4zMsWnn-26">
          <mxGeometry width="50" height="50" relative="1" as="geometry">
            <mxPoint x="611" y="500" as="sourcePoint" />
            <mxPoint x="429" y="470" as="targetPoint" />
          </mxGeometry>
        </mxCell>
        <mxCell id="DHpkwYTsyXD9E4zMsWnn-30" value="邮箱" style="ellipse;whiteSpace=wrap;html=1;" vertex="1" parent="1">
          <mxGeometry x="151" y="290" width="120" height="60" as="geometry" />
        </mxCell>
        <mxCell id="DHpkwYTsyXD9E4zMsWnn-31" value="用户角色" style="ellipse;whiteSpace=wrap;html=1;" vertex="1" parent="1">
          <mxGeometry x="120" y="350" width="100" height="60" as="geometry" />
        </mxCell>
        <mxCell id="DHpkwYTsyXD9E4zMsWnn-33" value="标签" style="ellipse;whiteSpace=wrap;html=1;" vertex="1" parent="1">
          <mxGeometry x="110" y="410" width="112.5" height="60" as="geometry" />
        </mxCell>
        <mxCell id="DHpkwYTsyXD9E4zMsWnn-35" style="edgeStyle=orthogonalEdgeStyle;rounded=0;orthogonalLoop=1;jettySize=auto;html=1;entryX=0;entryY=1;entryDx=0;entryDy=0;strokeColor=none;" edge="1" parent="1" source="DHpkwYTsyXD9E4zMsWnn-34" target="DHpkwYTsyXD9E4zMsWnn-1">
          <mxGeometry relative="1" as="geometry" />
        </mxCell>
        <mxCell id="DHpkwYTsyXD9E4zMsWnn-36" style="edgeStyle=orthogonalEdgeStyle;orthogonalLoop=1;jettySize=auto;html=1;entryX=0;entryY=0.5;entryDx=0;entryDy=0;startArrow=none;startFill=0;endArrow=none;endFill=0;rounded=0;strokeColor=none;" edge="1" parent="1" source="DHpkwYTsyXD9E4zMsWnn-19" target="DHpkwYTsyXD9E4zMsWnn-1">
          <mxGeometry relative="1" as="geometry">
            <Array as="points">
              <mxPoint x="287" y="565" />
              <mxPoint x="287" y="500" />
              <mxPoint x="309" y="500" />
            </Array>
          </mxGeometry>
        </mxCell>
        <mxCell id="DHpkwYTsyXD9E4zMsWnn-34" value="创建时间" style="ellipse;whiteSpace=wrap;html=1;" vertex="1" parent="1">
          <mxGeometry x="110" y="470" width="105" height="70" as="geometry" />
        </mxCell>
        <mxCell id="DHpkwYTsyXD9E4zMsWnn-37" value="" style="endArrow=none;html=1;rounded=0;entryX=0.974;entryY=0.368;entryDx=0;entryDy=0;entryPerimeter=0;" edge="1" parent="1" target="DHpkwYTsyXD9E4zMsWnn-34">
          <mxGeometry width="50" height="50" relative="1" as="geometry">
            <mxPoint x="330" y="470" as="sourcePoint" />
            <mxPoint x="261" y="550" as="targetPoint" />
          </mxGeometry>
        </mxCell>
        <mxCell id="DHpkwYTsyXD9E4zMsWnn-38" value="" style="endArrow=none;html=1;rounded=0;entryX=0.979;entryY=0.326;entryDx=0;entryDy=0;entryPerimeter=0;exitX=0;exitY=0.25;exitDx=0;exitDy=0;" edge="1" parent="1" source="DHpkwYTsyXD9E4zMsWnn-1" target="DHpkwYTsyXD9E4zMsWnn-33">
          <mxGeometry width="50" height="50" relative="1" as="geometry">
            <mxPoint x="311" y="470" as="sourcePoint" />
            <mxPoint x="256" y="484.5" as="targetPoint" />
          </mxGeometry>
        </mxCell>
        <mxCell id="DHpkwYTsyXD9E4zMsWnn-39" value="" style="endArrow=none;html=1;rounded=0;entryX=1;entryY=0.5;entryDx=0;entryDy=0;exitX=0;exitY=0;exitDx=0;exitDy=0;" edge="1" parent="1" source="DHpkwYTsyXD9E4zMsWnn-1" target="DHpkwYTsyXD9E4zMsWnn-31">
          <mxGeometry width="50" height="50" relative="1" as="geometry">
            <mxPoint x="319" y="465" as="sourcePoint" />
            <mxPoint x="264" y="483" as="targetPoint" />
          </mxGeometry>
        </mxCell>
        <mxCell id="DHpkwYTsyXD9E4zMsWnn-40" value="" style="endArrow=none;html=1;rounded=0;entryX=1;entryY=1;entryDx=0;entryDy=0;exitX=0.074;exitY=-0.022;exitDx=0;exitDy=0;exitPerimeter=0;" edge="1" parent="1" source="DHpkwYTsyXD9E4zMsWnn-1" target="DHpkwYTsyXD9E4zMsWnn-30">
          <mxGeometry width="50" height="50" relative="1" as="geometry">
            <mxPoint x="319" y="450" as="sourcePoint" />
            <mxPoint x="266" y="425" as="targetPoint" />
          </mxGeometry>
        </mxCell>
        <mxCell id="DHpkwYTsyXD9E4zMsWnn-41" value="" style="endArrow=none;html=1;rounded=0;exitX=0.25;exitY=0;exitDx=0;exitDy=0;" edge="1" parent="1" source="DHpkwYTsyXD9E4zMsWnn-1" target="DHpkwYTsyXD9E4zMsWnn-25">
          <mxGeometry width="50" height="50" relative="1" as="geometry">
            <mxPoint x="387.5" y="421" as="sourcePoint" />
            <mxPoint x="319" y="330" as="targetPoint" />
          </mxGeometry>
        </mxCell>
        <mxCell id="DHpkwYTsyXD9E4zMsWnn-42" value="" style="endArrow=none;html=1;rounded=0;entryX=0.5;entryY=1;entryDx=0;entryDy=0;exitX=0.5;exitY=0;exitDx=0;exitDy=0;" edge="1" parent="1" source="DHpkwYTsyXD9E4zMsWnn-1" target="DHpkwYTsyXD9E4zMsWnn-27">
          <mxGeometry width="50" height="50" relative="1" as="geometry">
            <mxPoint x="337" y="459" as="sourcePoint" />
            <mxPoint x="268" y="368" as="targetPoint" />
          </mxGeometry>
        </mxCell>
        <mxCell id="DHpkwYTsyXD9E4zMsWnn-43" value="" style="endArrow=none;html=1;rounded=0;exitX=0.75;exitY=0;exitDx=0;exitDy=0;" edge="1" parent="1" target="DHpkwYTsyXD9E4zMsWnn-1">
          <mxGeometry width="50" height="50" relative="1" as="geometry">
            <mxPoint x="431" y="460" as="sourcePoint" />
            <mxPoint x="581" y="464" as="targetPoint" />
            <Array as="points" />
          </mxGeometry>
        </mxCell>
        <mxCell id="DHpkwYTsyXD9E4zMsWnn-1" value="用户" style="rounded=0;whiteSpace=wrap;html=1;" vertex="1" parent="1">
          <mxGeometry x="330" y="440" width="120" height="60" as="geometry" />
        </mxCell>
        <mxCell id="DHpkwYTsyXD9E4zMsWnn-44" value="" style="edgeStyle=orthogonalEdgeStyle;orthogonalLoop=1;jettySize=auto;html=1;entryX=0;entryY=0.5;entryDx=0;entryDy=0;startArrow=none;startFill=0;endArrow=none;endFill=0;rounded=0;strokeColor=none;" edge="1" parent="1" source="DHpkwYTsyXD9E4zMsWnn-34" target="DHpkwYTsyXD9E4zMsWnn-19">
          <mxGeometry relative="1" as="geometry">
            <mxPoint x="163" y="540" as="sourcePoint" />
            <mxPoint x="330" y="470" as="targetPoint" />
            <Array as="points" />
          </mxGeometry>
        </mxCell>
        <mxCell id="DHpkwYTsyXD9E4zMsWnn-19" value="修改时间" style="ellipse;whiteSpace=wrap;html=1;" vertex="1" parent="1">
          <mxGeometry x="115" y="540" width="110" height="60" as="geometry" />
        </mxCell>
        <mxCell id="DHpkwYTsyXD9E4zMsWnn-45" value="是否删除" style="ellipse;whiteSpace=wrap;html=1;" vertex="1" parent="1">
          <mxGeometry x="180" y="597.5" width="110" height="60" as="geometry" />
        </mxCell>
        <mxCell id="DHpkwYTsyXD9E4zMsWnn-46" value="" style="endArrow=none;html=1;rounded=0;entryX=0.695;entryY=0.059;entryDx=0;entryDy=0;entryPerimeter=0;exitX=0.191;exitY=0.998;exitDx=0;exitDy=0;exitPerimeter=0;" edge="1" parent="1" source="DHpkwYTsyXD9E4zMsWnn-1" target="DHpkwYTsyXD9E4zMsWnn-45">
          <mxGeometry width="50" height="50" relative="1" as="geometry">
            <mxPoint x="347" y="510" as="sourcePoint" />
            <mxPoint x="170" y="609" as="targetPoint" />
          </mxGeometry>
        </mxCell>
        <mxCell id="DHpkwYTsyXD9E4zMsWnn-81" value="最大人数" style="ellipse;whiteSpace=wrap;html=1;" vertex="1" parent="1">
          <mxGeometry x="514" y="1259" width="115" height="70" as="geometry" />
        </mxCell>
        <mxCell id="DHpkwYTsyXD9E4zMsWnn-82" value="" style="endArrow=none;html=1;rounded=0;entryX=0.5;entryY=1;entryDx=0;entryDy=0;exitX=0.672;exitY=0.018;exitDx=0;exitDy=0;exitPerimeter=0;" edge="1" parent="1" source="DHpkwYTsyXD9E4zMsWnn-111" target="DHpkwYTsyXD9E4zMsWnn-81">
          <mxGeometry width="50" height="50" relative="1" as="geometry">
            <mxPoint x="322" y="1418" as="sourcePoint" />
            <mxPoint x="422" y="1388" as="targetPoint" />
          </mxGeometry>
        </mxCell>
        <mxCell id="DHpkwYTsyXD9E4zMsWnn-83" value="" style="endArrow=none;html=1;rounded=0;exitX=0.75;exitY=0;exitDx=0;exitDy=0;entryX=0;entryY=0.5;entryDx=0;entryDy=0;" edge="1" parent="1" source="DHpkwYTsyXD9E4zMsWnn-111" target="DHpkwYTsyXD9E4zMsWnn-84">
          <mxGeometry width="50" height="50" relative="1" as="geometry">
            <mxPoint x="412" y="1438" as="sourcePoint" />
            <mxPoint x="492" y="1348" as="targetPoint" />
          </mxGeometry>
        </mxCell>
        <mxCell id="DHpkwYTsyXD9E4zMsWnn-84" value="队伍头像" style="ellipse;whiteSpace=wrap;html=1;" vertex="1" parent="1">
          <mxGeometry x="596" y="1344" width="115" height="70" as="geometry" />
        </mxCell>
        <mxCell id="DHpkwYTsyXD9E4zMsWnn-85" value="" style="endArrow=none;html=1;rounded=0;exitX=0.75;exitY=0;exitDx=0;exitDy=0;" edge="1" parent="1" source="DHpkwYTsyXD9E4zMsWnn-111" target="DHpkwYTsyXD9E4zMsWnn-86">
          <mxGeometry width="50" height="50" relative="1" as="geometry">
            <mxPoint x="432" y="1448" as="sourcePoint" />
            <mxPoint x="574.5" y="1378" as="targetPoint" />
            <Array as="points" />
          </mxGeometry>
        </mxCell>
        <mxCell id="DHpkwYTsyXD9E4zMsWnn-86" value="加入人数" style="ellipse;whiteSpace=wrap;html=1;" vertex="1" parent="1">
          <mxGeometry x="598" y="1431" width="115" height="70" as="geometry" />
        </mxCell>
        <mxCell id="DHpkwYTsyXD9E4zMsWnn-87" value="" style="endArrow=none;html=1;rounded=0;entryX=0.5;entryY=1;entryDx=0;entryDy=0;exitX=0.5;exitY=0;exitDx=0;exitDy=0;" edge="1" parent="1" source="DHpkwYTsyXD9E4zMsWnn-91">
          <mxGeometry width="50" height="50" relative="1" as="geometry">
            <mxPoint x="372" y="1578" as="sourcePoint" />
            <mxPoint x="368.90999999999997" y="1488" as="targetPoint" />
          </mxGeometry>
        </mxCell>
        <mxCell id="DHpkwYTsyXD9E4zMsWnn-88" value="" style="endArrow=none;html=1;rounded=0;entryX=0.41;entryY=0.991;entryDx=0;entryDy=0;entryPerimeter=0;" edge="1" parent="1" source="DHpkwYTsyXD9E4zMsWnn-111" target="DHpkwYTsyXD9E4zMsWnn-113">
          <mxGeometry width="50" height="50" relative="1" as="geometry">
            <mxPoint x="412" y="1678" as="sourcePoint" />
            <mxPoint x="504" y="1598" as="targetPoint" />
          </mxGeometry>
        </mxCell>
        <mxCell id="DHpkwYTsyXD9E4zMsWnn-89" value="" style="endArrow=none;html=1;rounded=0;exitX=0.75;exitY=1;exitDx=0;exitDy=0;entryX=0.5;entryY=0;entryDx=0;entryDy=0;" edge="1" parent="1" source="DHpkwYTsyXD9E4zMsWnn-111" target="DHpkwYTsyXD9E4zMsWnn-90">
          <mxGeometry width="50" height="50" relative="1" as="geometry">
            <mxPoint x="444" y="1698" as="sourcePoint" />
            <mxPoint x="586.5" y="1628" as="targetPoint" />
            <Array as="points" />
          </mxGeometry>
        </mxCell>
        <mxCell id="DHpkwYTsyXD9E4zMsWnn-90" value="队伍名称" style="ellipse;whiteSpace=wrap;html=1;" vertex="1" parent="1">
          <mxGeometry x="485" y="1585" width="105" height="70" as="geometry" />
        </mxCell>
        <mxCell id="DHpkwYTsyXD9E4zMsWnn-91" value="队伍Id" style="ellipse;whiteSpace=wrap;html=1;" vertex="1" parent="1">
          <mxGeometry x="353" y="1598" width="112" height="65" as="geometry" />
        </mxCell>
        <mxCell id="DHpkwYTsyXD9E4zMsWnn-93" value="队伍状态" style="ellipse;whiteSpace=wrap;html=1;" vertex="1" parent="1">
          <mxGeometry x="260" y="1248" width="105" height="70" as="geometry" />
        </mxCell>
        <mxCell id="DHpkwYTsyXD9E4zMsWnn-94" value="密码" style="ellipse;whiteSpace=wrap;html=1;" vertex="1" parent="1">
          <mxGeometry x="609" y="1532" width="104" height="75" as="geometry" />
        </mxCell>
        <mxCell id="DHpkwYTsyXD9E4zMsWnn-95" value="描述" style="ellipse;whiteSpace=wrap;html=1;" vertex="1" parent="1">
          <mxGeometry x="383" y="1243" width="110" height="70" as="geometry" />
        </mxCell>
        <mxCell id="DHpkwYTsyXD9E4zMsWnn-97" value="" style="endArrow=none;html=1;rounded=0;entryX=1;entryY=0.75;entryDx=0;entryDy=0;" edge="1" parent="1" source="DHpkwYTsyXD9E4zMsWnn-94">
          <mxGeometry width="50" height="50" relative="1" as="geometry">
            <mxPoint x="612" y="1488" as="sourcePoint" />
            <mxPoint x="430" y="1458" as="targetPoint" />
          </mxGeometry>
        </mxCell>
        <mxCell id="DHpkwYTsyXD9E4zMsWnn-98" value="队长Id" style="ellipse;whiteSpace=wrap;html=1;" vertex="1" parent="1">
          <mxGeometry x="137" y="1286" width="120" height="60" as="geometry" />
        </mxCell>
        <mxCell id="DHpkwYTsyXD9E4zMsWnn-99" value="过期时间" style="ellipse;whiteSpace=wrap;html=1;" vertex="1" parent="1">
          <mxGeometry x="81" y="1362" width="100" height="60" as="geometry" />
        </mxCell>
        <mxCell id="DHpkwYTsyXD9E4zMsWnn-101" style="edgeStyle=orthogonalEdgeStyle;rounded=0;orthogonalLoop=1;jettySize=auto;html=1;entryX=0;entryY=1;entryDx=0;entryDy=0;strokeColor=none;" edge="1" parent="1" source="DHpkwYTsyXD9E4zMsWnn-103" target="DHpkwYTsyXD9E4zMsWnn-111">
          <mxGeometry relative="1" as="geometry" />
        </mxCell>
        <mxCell id="DHpkwYTsyXD9E4zMsWnn-102" style="edgeStyle=orthogonalEdgeStyle;orthogonalLoop=1;jettySize=auto;html=1;entryX=0;entryY=0.5;entryDx=0;entryDy=0;startArrow=none;startFill=0;endArrow=none;endFill=0;rounded=0;strokeColor=none;" edge="1" parent="1" source="DHpkwYTsyXD9E4zMsWnn-113" target="DHpkwYTsyXD9E4zMsWnn-111">
          <mxGeometry relative="1" as="geometry">
            <Array as="points">
              <mxPoint x="288" y="1553" />
              <mxPoint x="288" y="1488" />
              <mxPoint x="310" y="1488" />
            </Array>
          </mxGeometry>
        </mxCell>
        <mxCell id="DHpkwYTsyXD9E4zMsWnn-103" value="创建时间" style="ellipse;whiteSpace=wrap;html=1;" vertex="1" parent="1">
          <mxGeometry x="97" y="1456" width="105" height="70" as="geometry" />
        </mxCell>
        <mxCell id="DHpkwYTsyXD9E4zMsWnn-104" value="" style="endArrow=none;html=1;rounded=0;entryX=0.974;entryY=0.368;entryDx=0;entryDy=0;entryPerimeter=0;" edge="1" parent="1" target="DHpkwYTsyXD9E4zMsWnn-103">
          <mxGeometry width="50" height="50" relative="1" as="geometry">
            <mxPoint x="331" y="1458" as="sourcePoint" />
            <mxPoint x="262" y="1538" as="targetPoint" />
          </mxGeometry>
        </mxCell>
        <mxCell id="DHpkwYTsyXD9E4zMsWnn-106" value="" style="endArrow=none;html=1;rounded=0;entryX=1;entryY=0.5;entryDx=0;entryDy=0;exitX=0;exitY=0;exitDx=0;exitDy=0;" edge="1" parent="1" source="DHpkwYTsyXD9E4zMsWnn-111" target="DHpkwYTsyXD9E4zMsWnn-99">
          <mxGeometry width="50" height="50" relative="1" as="geometry">
            <mxPoint x="320" y="1453" as="sourcePoint" />
            <mxPoint x="265" y="1471" as="targetPoint" />
          </mxGeometry>
        </mxCell>
        <mxCell id="DHpkwYTsyXD9E4zMsWnn-107" value="" style="endArrow=none;html=1;rounded=0;entryX=1;entryY=1;entryDx=0;entryDy=0;exitX=0.074;exitY=-0.022;exitDx=0;exitDy=0;exitPerimeter=0;" edge="1" parent="1" source="DHpkwYTsyXD9E4zMsWnn-111" target="DHpkwYTsyXD9E4zMsWnn-98">
          <mxGeometry width="50" height="50" relative="1" as="geometry">
            <mxPoint x="320" y="1438" as="sourcePoint" />
            <mxPoint x="267" y="1413" as="targetPoint" />
          </mxGeometry>
        </mxCell>
        <mxCell id="DHpkwYTsyXD9E4zMsWnn-108" value="" style="endArrow=none;html=1;rounded=0;exitX=0.25;exitY=0;exitDx=0;exitDy=0;" edge="1" parent="1" source="DHpkwYTsyXD9E4zMsWnn-111" target="DHpkwYTsyXD9E4zMsWnn-93">
          <mxGeometry width="50" height="50" relative="1" as="geometry">
            <mxPoint x="388.5" y="1409" as="sourcePoint" />
            <mxPoint x="320" y="1318" as="targetPoint" />
          </mxGeometry>
        </mxCell>
        <mxCell id="DHpkwYTsyXD9E4zMsWnn-109" value="" style="endArrow=none;html=1;rounded=0;entryX=0.5;entryY=1;entryDx=0;entryDy=0;exitX=0.5;exitY=0;exitDx=0;exitDy=0;" edge="1" parent="1" source="DHpkwYTsyXD9E4zMsWnn-111" target="DHpkwYTsyXD9E4zMsWnn-95">
          <mxGeometry width="50" height="50" relative="1" as="geometry">
            <mxPoint x="338" y="1447" as="sourcePoint" />
            <mxPoint x="269" y="1356" as="targetPoint" />
          </mxGeometry>
        </mxCell>
        <mxCell id="DHpkwYTsyXD9E4zMsWnn-110" value="" style="endArrow=none;html=1;rounded=0;exitX=0.75;exitY=0;exitDx=0;exitDy=0;" edge="1" parent="1" target="DHpkwYTsyXD9E4zMsWnn-111">
          <mxGeometry width="50" height="50" relative="1" as="geometry">
            <mxPoint x="432" y="1448" as="sourcePoint" />
            <mxPoint x="582" y="1452" as="targetPoint" />
            <Array as="points" />
          </mxGeometry>
        </mxCell>
        <mxCell id="DHpkwYTsyXD9E4zMsWnn-111" value="队伍" style="rounded=0;whiteSpace=wrap;html=1;" vertex="1" parent="1">
          <mxGeometry x="331" y="1428" width="120" height="60" as="geometry" />
        </mxCell>
        <mxCell id="DHpkwYTsyXD9E4zMsWnn-112" value="" style="edgeStyle=orthogonalEdgeStyle;orthogonalLoop=1;jettySize=auto;html=1;entryX=0;entryY=0.5;entryDx=0;entryDy=0;startArrow=none;startFill=0;endArrow=none;endFill=0;rounded=0;strokeColor=none;" edge="1" parent="1" source="DHpkwYTsyXD9E4zMsWnn-103" target="DHpkwYTsyXD9E4zMsWnn-113">
          <mxGeometry relative="1" as="geometry">
            <mxPoint x="164" y="1528" as="sourcePoint" />
            <mxPoint x="331" y="1458" as="targetPoint" />
            <Array as="points" />
          </mxGeometry>
        </mxCell>
        <mxCell id="DHpkwYTsyXD9E4zMsWnn-113" value="修改时间" style="ellipse;whiteSpace=wrap;html=1;" vertex="1" parent="1">
          <mxGeometry x="127" y="1554" width="110" height="60" as="geometry" />
        </mxCell>
        <mxCell id="DHpkwYTsyXD9E4zMsWnn-114" value="是否删除" style="ellipse;whiteSpace=wrap;html=1;" vertex="1" parent="1">
          <mxGeometry x="226" y="1600.5" width="110" height="60" as="geometry" />
        </mxCell>
        <mxCell id="DHpkwYTsyXD9E4zMsWnn-115" value="" style="endArrow=none;html=1;rounded=0;entryX=0.695;entryY=0.059;entryDx=0;entryDy=0;entryPerimeter=0;exitX=0.191;exitY=0.998;exitDx=0;exitDy=0;exitPerimeter=0;" edge="1" parent="1" source="DHpkwYTsyXD9E4zMsWnn-111" target="DHpkwYTsyXD9E4zMsWnn-114">
          <mxGeometry width="50" height="50" relative="1" as="geometry">
            <mxPoint x="348" y="1498" as="sourcePoint" />
            <mxPoint x="171" y="1597" as="targetPoint" />
          </mxGeometry>
        </mxCell>
      </root>
    </mxGraphModel>
  </diagram>
</mxfile>
